<?xml version="1.0" encoding="UTF-8" standalone="no"?>
<!-- Created with Inkscape (http://www.inkscape.org/) -->

<svg
   xmlns:dc="http://purl.org/dc/elements/1.1/"
   xmlns:cc="http://creativecommons.org/ns#"
   xmlns:rdf="http://www.w3.org/1999/02/22-rdf-syntax-ns#"
   xmlns:svg="http://www.w3.org/2000/svg"
   xmlns="http://www.w3.org/2000/svg"
   xmlns:sodipodi="http://sodipodi.sourceforge.net/DTD/sodipodi-0.dtd"
   xmlns:inkscape="http://www.inkscape.org/namespaces/inkscape"
   width="815.86383"
   height="815.86383"
   viewBox="0 0 815.86383 815.86386"
   id="svg4206"
   version="1.1"
   inkscape:version="0.92.5 (2060ec1f9f, 2020-04-08)"
   sodipodi:docname="AU-RoadSign-PolarBear.svg">
  <title
     id="title12">Polar Bear Warning</title>
  <defs
     id="defs4208" />
  <sodipodi:namedview
     id="base"
     pagecolor="#ffffff"
     bordercolor="#666666"
     borderopacity="1.0"
     inkscape:pageopacity="0.0"
     inkscape:pageshadow="2"
     inkscape:zoom="0.67462212"
     inkscape:cx="-110.86477"
     inkscape:cy="379.2856"
     inkscape:document-units="px"
     inkscape:current-layer="layer1"
     showgrid="false"
     inkscape:window-width="1127"
     inkscape:window-height="507"
     inkscape:window-x="0"
     inkscape:window-y="0"
     inkscape:window-maximized="0"
     fit-margin-top="0.2"
     fit-margin-left="0.2"
     fit-margin-right="0.2"
     fit-margin-bottom="0.2"
     units="px"
     showguides="false" />
  <metadata
     id="metadata4211">
    <rdf:RDF>
      <cc:Work
         rdf:about="">
        <dc:format>image/svg+xml</dc:format>
        <dc:type
           rdf:resource="http://purl.org/dc/dcmitype/StillImage" />
        <dc:title>Polar Bear Warning</dc:title>
        <dc:date>2016-11-09</dc:date>
        <dc:creator>
          <cc:Agent>
            <dc:title>Thomas Dreibholz</dc:title>
          </cc:Agent>
        </dc:creator>
        <dc:rights>
          <cc:Agent>
            <dc:title>Copyright 2016 Thomas Dreibholz</dc:title>
          </cc:Agent>
        </dc:rights>
        <dc:identifier></dc:identifier>
        <dc:publisher>
          <cc:Agent>
            <dc:title>Thomas Dreibholz</dc:title>
          </cc:Agent>
        </dc:publisher>
      </cc:Work>
    </rdf:RDF>
  </metadata>
  <g
     inkscape:label="Layer 1"
     inkscape:groupmode="layer"
     id="layer1"
     transform="translate(-929.86353,1362.7282)">
    <rect
       ry="40"
       rx="40"
       y="-1921.1072"
       x="-29.17872"
       height="600"
       width="600"
       id="rect4770"
       style="fill:#fee011;fill-opacity:1;stroke:none;stroke-width:8;stroke-linejoin:miter;stroke-miterlimit:4;stroke-dasharray:none;stroke-dashoffset:0;stroke-opacity:1"
       transform="matrix(0.70710678,0.70710678,-0.70710678,0.70710678,0,0)" />
    <rect
       ry="32"
       rx="32"
       y="-1913.1071"
       x="-21.178751"
       height="584"
       width="584"
       id="rect4778"
       style="fill:#000000;fill-opacity:1;stroke:none;stroke-width:8;stroke-linejoin:miter;stroke-miterlimit:4;stroke-dasharray:none;stroke-dashoffset:0;stroke-opacity:1"
       transform="matrix(0.70710678,0.70710678,-0.70710678,0.70710678,0,0)" />
    <rect
       style="fill:#fee011;fill-opacity:1;stroke:none;stroke-width:8;stroke-linejoin:miter;stroke-miterlimit:4;stroke-dasharray:none;stroke-dashoffset:0;stroke-opacity:1"
       id="rect4789"
       width="552"
       height="552"
       x="-5.1786604"
       y="-1897.1069"
       rx="16"
       ry="16"
       transform="matrix(0.70710678,0.70710678,-0.70710678,0.70710678,0,0)" />
    <path
       d="m 1191.8435,-1065.8453 c -1.2497,5.5858 -7.0523,2.4784 -10.4802,1.1361 -3.0068,10.3578 12.6037,12.5201 17.1009,6.8168 7.3106,-9.1966 -3.5355,-20.5596 -13.8004,-19.3143 0.9092,5.3279 6.4756,5.8292 7.1797,11.3614 l 0,0 z m -56.3524,-9.0695 c 5.1652,-1.7163 11.169,-2.5514 13.2575,-7.3956 -4.7133,-2.5279 -11.4435,-2.9781 -18.7861,-2.8301 0.2859,5.0072 2.6295,7.8749 5.5286,10.2257 l 0,0 z m 423.7845,101.58562 c -1.4504,4.24936 -3.2298,-3.14675 -7.1797,-1.71114 6.7981,16.76387 18.9866,34.34534 17.1353,60.73999 -0.6169,8.6816 -1.8855,17.99348 -1.6344,27.22829 0.387,16.00478 6.6551,30.19731 4.9556,45.41323 -0.221,1.78808 -1.6338,4.23013 -2.1965,7.37527 -1.4135,7.52505 -0.2184,14.90067 -3.8995,19.31882 -4.8076,5.76939 -16.6445,10.01657 -25.9466,11.34307 -2.3738,-1.91725 -1.5071,-7.156 -2.7742,-10.22774 -6.5789,-0.13305 -3.6241,9.53654 -7.742,11.9376 -5.315,-0.79687 -2.9176,-9.51605 -5.5155,-13.05293 -5.3287,0.36827 -3.4588,8.17227 -7.741,9.62632 -10.9166,-10.29426 4.6406,-18.07009 7.741,-26.09566 1.2707,-29.03938 -21.3383,-41.16088 -32.5943,-59.03047 -6.9846,-11.04568 -9.1012,-22.53325 -17.7021,-32.34965 -4.3316,-2.34987 -8.6304,-4.73225 -14.8863,-5.12044 0.4377,4.65026 4.5698,6.27149 7.1676,9.66398 4.763,6.27552 8.5936,14.64223 12.13,22.12834 3.68,7.74858 8.0484,14.65963 11.0605,21.57365 -13.7455,1.16985 -26.583,-3.33661 -38.6762,-6.80215 -12.1517,-3.49933 -25.007,-5.28981 -34.2551,-12.49755 -1.0176,-21.49509 6.5435,-53.75256 -17.6588,-56.17756 -0.5452,6.53695 6.1622,12.66841 7.7246,19.27886 2.0827,8.79074 0.761,25.59251 0,35.18539 -1.6326,20.38115 -1.4528,45.24593 -8.8304,57.91284 -2.0152,3.40875 -5.5529,4.87929 -7.7619,8.51168 -5.4074,9.01574 -5.9113,21.66239 -11.6053,27.81114 -4.2822,4.67718 -13.076,7.88336 -20.9813,6.24163 -2.0826,-2.40289 -0.6881,-8.37987 -3.3175,-10.22602 -5.5668,-0.221 -3.336,7.56674 -7.7431,8.53355 -3.7328,-1.28412 -2.6288,-7.51039 -2.7552,-12.49779 -6.0031,-0.66931 -4.3683,6.48348 -8.2877,7.95287 -5.6957,-20.09623 16.3757,-18.73917 17.6817,-35.76182 2.0653,-26.65185 -15.2492,-47.90475 -25.4209,-64.70824 -3.9381,-6.47763 -7.8567,-12.43972 -12.1505,-17.58285 -5.0418,-1.82014 -8.7938,-4.9725 -15.4685,-5.12055 7.7764,14.19241 18.0972,24.99578 27.0738,39.73212 2.6828,4.43099 6.9952,9.91122 7.7405,14.19244 2.0869,11.90197 -6.6201,27.36144 -11.62,33.49051 -3.5567,4.37854 -8.8158,7.02314 -11.588,11.92271 -3.5714,6.277 -4.2989,12.47557 -9.9763,15.32825 -5.3652,2.70268 -16.9873,2.38605 -21.5205,-0.57565 -1.1258,-2.0858 -0.221,-6.20578 -1.6856,-7.9579 -5.1336,-0.92983 -3.9738,4.64249 -6.0601,6.82264 -3.6436,-0.59648 -1.2267,-7.43241 -2.7545,-10.21158 -4.8198,-0.61125 -3.4986,5.10591 -6.6355,6.24174 -2.609,-4.52625 -1.5785,-12.12287 1.1056,-15.32985 3.9016,-4.641 11.8929,-4.44988 16.031,-7.9358 5.2575,-4.47118 9.1184,-16.51893 9.4099,-23.84347 0.4168,-11.95467 -1.742,-26.1306 -3.3368,-36.89663 -2.6295,-17.71443 -5.8029,-33.79215 -17.1206,-43.69603 -10.1508,-8.88636 -25.0208,-12.59203 -38.1326,-21.56817 -12.0369,-8.23776 -23.4989,-19.67288 -34.2668,-25.53993 -10.4802,-5.7404 -24.0801,-7.9897 -32.5815,-15.32978 -8.0175,-6.875 -12.4385,-14.847 -21.5413,-18.1628 -5.0783,-0.2451 -11.7142,-1.8445 -18.8064,-1.1367 -8.1756,0.8188 -17.1514,4.4682 -17.1308,-6.8171 1.8092,-0.7838 3.0426,2.2714 5.5094,2.8473 13.0319,2.9448 17.1135,-9.3663 15.4862,-21.0093 -1.7429,-12.5562 -16.6265,-25.6487 -27.637,-18.1407 -2.4461,1.6779 -3.0809,3.5956 -3.8443,7.9152 -3.1865,-6.3679 -5.1826,-13.9722 -6.6358,-22.1291 8.7429,-8.6228 23.2624,-4.5412 37.0065,-8.5128 5.8602,-1.6722 10.2851,-5.3815 21.0169,-4.5462 13.6904,1.0616 26.9278,5.4589 38.6545,11.3623 10.7725,5.4007 20.7081,11.7375 33.7269,15.9084 12.6202,4.0243 27.3076,5.7395 41.9561,7.9152 17.7531,2.6674 33.564,4.2305 53.0579,5.1206 32.476,1.4583 58.7843,14.7526 96.6805,11.9226 30.7152,-2.2905 63.279,-0.205 86.2346,7.9551 18.2766,6.4773 32.9617,23.4326 45.8215,36.88058 6.7667,7.0693 14.491,15.2096 15.4908,24.96784 l 0,0 z"
       id="path333"
       style="display:inline;fill:#ffffff;stroke:none"
       inkscape:connector-curvature="0" />
    <path
       d="m 1437.1573,-873.99221 c 18.2019,3.24076 34.4674,8.51305 54.1791,10.20426 -3.0298,10.32196 -11.8576,18.57061 -13.2764,31.2207 -0.3084,2.7195 0.7074,5.80819 0,8.51144 -2.3173,8.90261 -15.2679,10.26528 -25.4213,9.64704 -1.8292,-2.2918 -2.8067,-5.4152 -2.7722,-9.64704 -5.6389,0.2423 -5.1351,6.8168 -8.8309,9.09247 -2.9904,-1.84488 -3.5199,-6.22467 -3.2992,-11.36218 -5.3348,0.0401 -4.6256,6.23737 -7.7459,8.51304 -9.8969,-8.01253 6.0035,-17.62464 9.3956,-22.70844 2.0664,-12.03584 -1.383,-22.61124 -2.2288,-33.47129 l 0,0 z"
       id="path339"
       style="display:inline;fill:#ffffff;stroke:none"
       inkscape:connector-curvature="0" />
  </g>
</svg>
