<?xml version="1.0" encoding="UTF-8" standalone="no"?>
<!-- Created with Inkscape (http://www.inkscape.org/) -->

<svg
   xmlns:dc="http://purl.org/dc/elements/1.1/"
   xmlns:cc="http://creativecommons.org/ns#"
   xmlns:rdf="http://www.w3.org/1999/02/22-rdf-syntax-ns#"
   xmlns:svg="http://www.w3.org/2000/svg"
   xmlns="http://www.w3.org/2000/svg"
   xmlns:sodipodi="http://sodipodi.sourceforge.net/DTD/sodipodi-0.dtd"
   xmlns:inkscape="http://www.inkscape.org/namespaces/inkscape"
   version="1.1"
   width="319.276"
   height="279.61874"
   id="svg2"
   xml:space="preserve"
   inkscape:version="0.48.4 r9939"
   sodipodi:docname="AJAX1.svg"><sodipodi:namedview
     pagecolor="#ffffff"
     bordercolor="#666666"
     borderopacity="1"
     objecttolerance="10"
     gridtolerance="10"
     guidetolerance="10"
     inkscape:pageopacity="0"
     inkscape:pageshadow="2"
     inkscape:window-width="1280"
     inkscape:window-height="1004"
     id="namedview9"
     showgrid="false"
     fit-margin-top="0.2"
     fit-margin-left="0.2"
     fit-margin-right="0.2"
     fit-margin-bottom="0.2"
     inkscape:zoom="2.2360567"
     inkscape:cx="189.98684"
     inkscape:cy="105.79377"
     inkscape:window-x="-8"
     inkscape:window-y="-8"
     inkscape:window-maximized="1"
     inkscape:current-layer="svg2"
     showguides="true"
     inkscape:guide-bbox="true" /><defs
     id="defs52" /><metadata
     id="metadata4"><rdf:RDF><cc:Work
         rdf:about=""><dc:format>image/svg+xml</dc:format><dc:type
           rdf:resource="http://purl.org/dc/dcmitype/StillImage" /><dc:title /></cc:Work></rdf:RDF></metadata><path
     style="fill:#cd1e00;fill-opacity:1;fill-rule:nonzero;stroke:none"
     d="m 159.638,0.2 c 3.75736,1.3e-4 7.51377,1.87636 9.71878,5.65625 l 148.18797,256.81249 c 1.08125,1.71125 1.53125,3.61374 1.53125,5.59375 0,6.12 -4.94627,11.15625 -11.15629,11.15625 l -296.56343,0 C 5.14627,279.41874 0.2,274.38249 0.2,268.26249 c 0,-1.98001 0.45,-3.8825 1.53125,-5.59375 L 149.91922,5.85625 C 152.12423,2.07636 155.88064,0.20013 159.638,0.2 z"
     id="path11"
     inkscape:connector-curvature="0"
     sodipodi:nodetypes="cccssssccc" /><path
     inkscape:connector-curvature="0"
     style="fill:#000000;fill-opacity:1;fill-rule:nonzero;stroke:none"
     d="m 159.638,56.12835 109.574,189.71997 -219.147496,0 z"
     id="path13"
     sodipodi:nodetypes="cccc" /><path
     d="m 130.35683,165.85428 c -0.33527,1.45855 -1.89164,0.64707 -2.8111,0.29662 -0.80648,2.70461 3.38068,3.2692 4.58697,1.77996 1.96098,-2.40132 -0.94831,-5.36835 -3.70171,-5.04323 0.24392,1.39123 1.73703,1.52215 1.92584,2.96665 l 0,0 z m -15.11535,-2.36821 c 1.38548,-0.4481 2.99584,-0.66613 3.55599,-1.93105 -1.26417,-0.66002 -3.06945,-0.77762 -5.03894,-0.73898 0.0767,1.30746 0.70532,2.05624 1.48295,2.67003 l 0,0 z m 113.67144,26.52528 c -0.3891,1.10956 -0.8664,-0.82166 -1.92586,-0.4468 1.8234,4.3773 5.09277,8.968 4.59624,15.85999 -0.16552,2.26686 -0.50579,4.69833 -0.43847,7.10964 0.10389,4.17905 1.78513,7.88487 1.32926,11.85791 -0.0593,0.46694 -0.43828,1.10458 -0.58918,1.92586 -0.3791,1.96488 -0.0589,3.89074 -1.04595,5.04433 -1.28952,1.50646 -4.46457,2.61548 -6.95963,2.96185 -0.6367,-0.50061 -0.40425,-1.86853 -0.74414,-2.67058 -1.76461,-0.0344 -0.972,2.49009 -2.07659,3.117 -1.42561,-0.20806 -0.7826,-2.48473 -1.47942,-3.40827 -1.42932,0.0962 -0.92778,2.13391 -2.07639,2.51357 -2.92817,-2.68795 1.24477,-4.71831 2.07639,-6.81392 0.34083,-7.58252 -5.72355,-10.74759 -8.74271,-15.41357 -1.8735,-2.88418 -2.44125,-5.88374 -4.74825,-8.44687 -1.1619,-0.6136 -2.31493,-1.23571 -3.99297,-1.33704 0.11747,1.21425 1.22571,1.63755 1.92252,2.52336 1.27767,1.63866 2.30513,3.82326 3.25365,5.77797 0.98714,2.02331 2.15885,3.82787 2.9668,5.63316 -3.68693,0.30549 -7.13031,-0.87122 -10.37415,-1.77607 -3.25937,-0.91374 -6.70755,-1.38125 -9.18819,-3.2633 -0.27296,-5.61261 1.75516,-14.03545 -4.73659,-14.66865 -0.14628,1.70691 1.6529,3.30785 2.07195,5.03398 0.55866,2.29536 0.20416,6.68246 0,9.18733 -0.43791,5.32174 -0.38965,11.81427 -2.36858,15.12175 -0.54053,0.89007 -1.48942,1.27399 -2.08193,2.22249 -1.45041,2.35416 -1.58557,5.65628 -3.11291,7.26184 -1.14859,1.22128 -3.50736,2.05845 -5.62776,1.62979 -0.55867,-0.62747 -0.18456,-2.18809 -0.88988,-2.67021 -1.49312,-0.0579 -0.89486,1.9758 -2.07693,2.22822 -1.00122,-0.33528 -0.70514,-1.961 -0.73898,-3.26328 -1.61019,-0.17476 -1.1717,1.69287 -2.22303,2.0766 -1.5277,-5.24741 4.39243,-4.89308 4.74269,-9.33788 0.55403,-6.9591 -4.09026,-12.50849 -6.81852,-16.89615 -1.05631,-1.69137 -2.10746,-3.24811 -3.25919,-4.59107 -1.35239,-0.47527 -2.35877,-1.29839 -4.14908,-1.33704 2.08582,3.70581 4.85422,6.52673 7.26199,10.37457 0.71955,1.15693 1.87628,2.58792 2.0762,3.70583 0.55977,3.10775 -1.7757,7.1444 -3.11679,8.74478 -0.95406,1.14325 -2.3647,1.83378 -3.10828,3.11312 -0.95795,1.63905 -1.15305,3.25755 -2.67593,4.00245 -1.43912,0.7057 -4.55647,0.62303 -5.77238,-0.15035 -0.30199,-0.54461 -0.0594,-1.62036 -0.45215,-2.07788 -1.37699,-0.24282 -1.06594,1.21223 -1.62553,1.78144 -0.97735,-0.15571 -0.329,-1.94065 -0.73879,-2.66633 -1.29283,-0.15959 -0.93852,1.33318 -1.77994,1.62979 -0.69978,-1.18189 -0.4233,-3.16544 0.29663,-4.00281 1.04651,-1.21184 3.19002,-1.16192 4.29996,-2.07215 1.41027,-1.16746 2.44587,-4.31331 2.52409,-6.22585 0.11175,-3.12144 -0.4673,-6.823 -0.89505,-9.63413 -0.70532,-4.62546 -1.55654,-8.82358 -4.59234,-11.40963 -2.7227,-2.32032 -6.71126,-3.28788 -10.22824,-5.63169 -3.22867,-2.15092 -6.30312,-5.13679 -9.19134,-6.66877 -2.81111,-1.49885 -6.45901,-2.0862 -8.73938,-4.00282 -2.15053,-1.79511 -3.3363,-3.87668 -5.77793,-4.74252 -1.36217,-0.0639 -3.14212,-0.48156 -5.04448,-0.29681 -2.19288,0.21377 -4.60049,1.16672 -4.59494,-1.77996 0.48526,-0.20471 0.8161,0.59308 1.47777,0.74342 3.49553,0.76894 4.59032,-2.4457 4.15388,-5.48577 -0.4675,-3.27862 -4.45975,-6.69725 -7.41306,-4.73681 -0.65613,0.43811 -0.82645,0.9389 -1.03118,2.06679 -0.85473,-1.66271 -1.3901,-3.64831 -1.77993,-5.77814 2.34509,-2.25153 6.23968,-1.18578 9.92625,-2.22286 1.5719,-0.43662 2.75877,-1.4051 5.63737,-1.18707 3.67213,0.27721 7.22277,1.42545 10.36824,2.96684 2.88951,1.41026 5.55452,3.06484 9.04654,4.15389 3.38511,1.05077 7.32467,1.49868 11.25385,2.06678 4.76193,0.69645 9.0029,1.1046 14.23177,1.33704 8.71091,0.38079 15.76761,3.85211 25.93242,3.11312 8.23878,-0.59807 16.97333,-0.0538 23.13073,2.07715 4.90229,1.69136 8.84128,6.11858 12.29058,9.63005 1.81508,1.84579 3.88701,3.97137 4.15517,6.51935 l 0,0 z"
     id="path333"
     style="fill:#ffffff;stroke:none;display:inline"
     inkscape:connector-curvature="0" /><path
     d="m 196.15718,215.94947 c 4.88232,0.84624 9.24516,2.22286 14.53246,2.66447 -0.81277,2.69516 -3.18059,4.84905 -3.56118,8.1521 -0.0827,0.71012 0.18973,1.5166 0,2.22249 -0.62155,2.32456 -4.09526,2.68038 -6.8187,2.51893 -0.49063,-0.59843 -0.75285,-1.41397 -0.7436,-2.51893 -1.51254,0.0633 -1.37737,1.77994 -2.36876,2.37414 -0.80204,-0.48176 -0.94407,-1.62536 -0.88488,-2.96684 -1.43099,0.0106 -1.2407,1.62868 -2.07769,2.22285 -2.65464,-2.09212 1.61037,-4.60199 2.52021,-5.92941 0.55424,-3.14272 -0.37096,-5.90409 -0.59786,-8.7398 l 0,0 z"
     id="path339"
     style="fill:#ffffff;stroke:none;display:inline"
     inkscape:connector-curvature="0" /></svg>