<?xml version="1.0" encoding="UTF-8" standalone="no"?>
<!-- Created with Inkscape (http://www.inkscape.org/) -->

<svg
   xmlns:dc="http://purl.org/dc/elements/1.1/"
   xmlns:cc="http://creativecommons.org/ns#"
   xmlns:rdf="http://www.w3.org/1999/02/22-rdf-syntax-ns#"
   xmlns:svg="http://www.w3.org/2000/svg"
   xmlns="http://www.w3.org/2000/svg"
   xmlns:sodipodi="http://sodipodi.sourceforge.net/DTD/sodipodi-0.dtd"
   xmlns:inkscape="http://www.inkscape.org/namespaces/inkscape"
   version="1.1"
   width="319.276"
   height="279.61874"
   id="svg2"
   xml:space="preserve"
   inkscape:version="0.48.4 r9939"
   sodipodi:docname="AJAX1.svg"><sodipodi:namedview
     pagecolor="#ffffff"
     bordercolor="#666666"
     borderopacity="1"
     objecttolerance="10"
     gridtolerance="10"
     guidetolerance="10"
     inkscape:pageopacity="0"
     inkscape:pageshadow="2"
     inkscape:window-width="1280"
     inkscape:window-height="1004"
     id="namedview9"
     showgrid="false"
     fit-margin-top="0.2"
     fit-margin-left="0.2"
     fit-margin-right="0.2"
     fit-margin-bottom="0.2"
     inkscape:zoom="2"
     inkscape:cx="171.80591"
     inkscape:cy="125.05292"
     inkscape:window-x="-8"
     inkscape:window-y="-8"
     inkscape:window-maximized="1"
     inkscape:current-layer="svg2"
     showguides="true"
     inkscape:guide-bbox="true" /><defs
     id="defs52" /><metadata
     id="metadata4"><rdf:RDF><cc:Work
         rdf:about=""><dc:format>image/svg+xml</dc:format><dc:type
           rdf:resource="http://purl.org/dc/dcmitype/StillImage" /><dc:title /></cc:Work></rdf:RDF></metadata><path
     style="fill:#cd1e00;fill-opacity:1;fill-rule:nonzero;stroke:none"
     d="m 159.638,0.2 c 3.75736,1.3e-4 7.51377,1.87636 9.71878,5.65625 l 148.18797,256.81249 c 1.08125,1.71125 1.53125,3.61374 1.53125,5.59375 0,6.12 -4.94627,11.15625 -11.15629,11.15625 l -296.56343,0 C 5.14627,279.41874 0.2,274.38249 0.2,268.26249 c 0,-1.98001 0.45,-3.8825 1.53125,-5.59375 L 149.91922,5.85625 C 152.12423,2.07636 155.88064,0.20013 159.638,0.2 z"
     id="path11"
     inkscape:connector-curvature="0"
     sodipodi:nodetypes="cccssssccc" /><path
     inkscape:connector-curvature="0"
     style="fill:#f7e828;fill-rule:nonzero;stroke:none;fill-opacity:1"
     d="m 159.638,56.12835 109.574,189.71997 -219.1475,0 z"
     id="path13"
     sodipodi:nodetypes="cccc" /><path
     inkscape:connector-curvature="0"
     style="fill:#000000;fill-rule:nonzero;stroke:none"
     d="m 257.54964,239.17463 -85.13214,0 6.78944,-9.45543 7.2175,0 3.86381,-5.39636 -10.12327,-7.37735 c -0.81535,-0.59327 -1.00042,-1.73263 -0.41572,-2.55442 l 3.00179,-4.2157 -20.75721,-15.10498 c -1.70259,1.04601 -3.86811,0.96233 -5.48487,-0.2135 -1.61623,-1.17529 -2.36292,-3.20938 -1.89248,-5.15175 l -11.04967,-8.01622 12.45508,19.19355 c 0.73221,1.12862 1.10073,2.45518 1.05406,3.80052 l 0.0316,27.75102 c 0.0654,2.36507 -1.15866,4.57832 -3.19651,5.78044 -2.03732,1.20157 -4.56706,1.20157 -6.60491,0 -2.03785,-1.20212 -3.26142,-3.41537 -3.19598,-5.78044 l 0,-24.62102 -11.97552,-18.4592 -0.15985,18.77783 -15.68055,27.36855 c -1.09269,2.11778 -3.2582,3.46741 -5.64097,3.51461 -2.3833,0.0472 -4.60032,-1.21498 -5.77561,-3.28877 -1.17582,-2.07326 -1.12057,-4.62446 0.14376,-6.64514 l 12.90192,-22.03496 0,-31.74358 c 0,-2.18644 0.70538,-4.31441 2.0121,-6.06795 l 2.36292,-3.03398 -5.38027,-3.91263 c -0.84486,1.55668 -2.4922,2.50561 -4.26237,2.45679 -1.77018,-0.0499 -3.3612,-1.09054 -4.11754,-2.69174 -0.75582,-1.60121 -0.54715,-3.49154 0.53909,-4.88945 l 14.01928,-17.88416 c 1.32495,-1.68917 3.37996,-2.63971 5.5251,-2.55442 l 23.43554,0 c 6.80714,0.61903 12.07637,6.22888 12.26733,13.06177 l 0,40.26993 21.62031,15.71167 3.03344,-4.11968 c 0.34545,-0.46883 0.88241,-0.75796 1.46388,-0.78854 0.58094,-0.0311 1.14579,0.20009 1.53845,0.62922 l 13.54025,9.83521 2.36399,-3.19275 0,-5.71607 9.13251,-5.33306 9.64478,0 11.33021,8.21738 19.55725,33.87476 z"
     id="path15" /><path
     inkscape:connector-curvature="0"
     style="fill:#000000;fill-rule:nonzero;stroke:none"
     d="m 176.78931,124.88713 c 0,-6.85488 -5.55729,-12.41216 -12.41217,-12.41216 -6.85488,0 -12.4127,5.55728 -12.4127,12.41216 0,6.85596 5.55782,12.4127 12.4127,12.4127 6.85488,0 12.41217,-5.55674 12.41217,-12.4127 z"
     id="path17" /><path
     inkscape:connector-curvature="0"
     style="fill:#f7e828;fill-rule:nonzero;stroke:none;fill-opacity:1"
     d="m 145.03607,176.03615 9.58042,6.9627 0,-19.16083 -9.58042,12.19813 z"
     id="path19" /><path
     inkscape:connector-curvature="0"
     style="fill:#f7e828;fill-rule:nonzero;stroke:none;fill-opacity:1"
     d="m 128.14214,147.93431 8.43087,0.0311 -10.92146,13.95598 -5.36524,-3.896 7.85583,-10.09109 z"
     id="path21" /></svg>